<svg width="393" height="393" viewBox="0 0 393 393" fill="none" xmlns="http://www.w3.org/2000/svg">
<path d="M293.402 162.628C295.097 163.463 296.954 163.919 298.843 163.963C298.949 163.951 299.051 163.918 299.145 163.866C299.238 163.814 299.32 163.744 299.385 163.66C299.451 163.576 299.5 163.479 299.528 163.376C299.556 163.273 299.564 163.166 299.55 163.06C299.393 161.823 297.998 162.883 294.129 161.096L294.325 159.642C294.423 159.23 293.932 158.562 293.402 158.758C292.872 158.955 292.734 159.583 292.577 160.723C292.42 161.862 292.342 162.097 293.402 162.628ZM88.386 168.206C90.7496 167.563 92.9692 166.477 94.9266 165.004C95.6926 164.415 95.4373 163.04 95.2212 162.255C95.1597 162.051 95.0251 161.877 94.8433 161.766C94.6614 161.655 94.4451 161.616 94.2358 161.655C94.0265 161.694 93.8389 161.808 93.7091 161.977C93.5792 162.146 93.5162 162.357 93.5321 162.569C93.5694 162.995 93.6483 163.416 93.7678 163.826C89.1128 167.224 87.3058 166.379 87.5808 167.754C87.6418 167.911 87.7555 168.042 87.9024 168.124C88.0493 168.207 88.2203 168.236 88.386 168.206ZM83.0436 164.572C86.9719 164.572 85.6363 162.255 84.5756 162.608L83.0633 162.844C81.7669 156.696 82.8079 155.4 81.6884 155.361C81.5195 155.35 81.3531 155.405 81.2247 155.515C81.0963 155.625 81.0159 155.781 81.0009 155.95C80.8622 158.378 81.0405 160.815 81.5312 163.197C81.7473 164.258 82.1401 164.572 83.0436 164.572ZM197.101 161.194C198.22 161.194 204.113 159.917 205.114 159.76C206.588 159.505 208.336 159.053 208.453 157.462C208.453 156.48 207.746 155.341 206.941 155.93C206.774 156.048 206.65 156.218 206.589 156.413C206.529 156.609 206.535 156.819 206.607 157.01C206.902 157.776 206.273 157.717 196.786 159.78C196.612 159.834 196.464 159.951 196.373 160.109C196.281 160.267 196.252 160.454 196.292 160.632C196.331 160.81 196.437 160.967 196.586 161.071C196.736 161.175 196.92 161.219 197.101 161.194ZM67.9198 113.112C68.3519 113.603 69.4125 113.112 69.0983 112.366C67.1341 107.573 63.5201 102.231 61.2417 96.9669C60.8882 96.1223 60.1811 94.6885 59.4937 94.6099C59.4076 94.5978 59.3198 94.6098 59.2401 94.6444C59.1604 94.6791 59.0918 94.7351 59.0419 94.8063C58.6098 95.3956 59.2383 97.0258 59.5329 97.7133C60.4364 99.6577 64.8165 109.557 67.9198 113.112ZM131.597 104.823C131.634 104.977 131.71 105.118 131.818 105.233C131.926 105.347 132.063 105.432 132.214 105.477C132.365 105.523 132.525 105.528 132.679 105.493C132.832 105.457 132.974 105.382 133.09 105.275C134.711 103.799 136.185 102.167 137.489 100.404C143.382 119.26 143.382 119.928 144.305 119.928C144.437 119.924 144.567 119.892 144.686 119.833C144.805 119.775 144.91 119.692 144.994 119.589C145.077 119.487 145.138 119.368 145.172 119.24C145.206 119.112 145.211 118.978 145.189 118.847C142.989 111.894 140.671 105.098 138.668 98.165C138.623 97.9927 138.528 97.8375 138.395 97.7189C138.262 97.6003 138.098 97.5236 137.921 97.4984C137.745 97.4732 137.565 97.5007 137.404 97.5773C137.244 97.654 137.109 97.7765 137.018 97.9293C135.89 99.7034 134.573 101.35 133.09 102.84C131.911 97.4579 129.161 85.1625 129.161 85.1625C129.112 84.9645 128.986 84.7943 128.811 84.6893C128.636 84.5844 128.426 84.5532 128.228 84.6027C128.031 84.6522 127.86 84.7783 127.755 84.9532C127.65 85.1282 127.619 85.3377 127.669 85.5356C128.336 88.58 131.184 103.468 131.597 104.823ZM29.2853 206.998C22.9608 203.973 17.3238 200.869 10.8421 197.452C9.58507 196.784 8.72086 199.082 10.685 199.612C16.344 203.145 22.3782 206.037 28.6764 208.235C29.4621 208.451 30.012 207.43 29.2853 206.998ZM34.3135 161.646C34.4485 161.765 34.6168 161.841 34.7959 161.862C34.9749 161.883 35.1561 161.848 35.3152 161.764C36.6115 161.135 34.942 159.583 35.5705 150.254C51.4996 169.483 50.6158 168.992 51.2836 168.992C51.4219 169 51.5597 168.969 51.6809 168.902C51.8021 168.835 51.9016 168.735 51.9677 168.613C52.0337 168.491 52.0636 168.353 52.0537 168.215C52.0439 168.076 51.9948 167.944 51.9121 167.833C49.4177 164.69 38.4971 151.118 35.5902 147.425C35.4809 147.287 35.3341 147.183 35.1674 147.125C35.0006 147.067 34.8208 147.059 34.6493 147.1C34.4778 147.141 34.3217 147.231 34.1995 147.358C34.0773 147.485 33.9942 147.645 33.96 147.818C33.5607 151.405 33.4949 155.022 33.7635 158.621C27.8711 153.337 22.2341 147.74 16.2828 142.594C16.1026 142.449 15.8772 142.373 15.6463 142.378C15.4153 142.383 15.1936 142.469 15.02 142.622C14.8464 142.774 14.7322 142.983 14.6973 143.211C14.6624 143.44 14.7092 143.673 14.8293 143.87C17.147 147.465 30.2281 157.934 34.3135 161.646ZM189.244 88.7961C189.244 88.9888 189.321 89.1737 189.457 89.31C189.593 89.4463 189.778 89.5228 189.971 89.5228C190.164 89.5228 190.349 89.4463 190.485 89.31C190.621 89.1737 190.698 88.9888 190.698 88.7961C191.034 81.5817 190.732 74.3517 189.794 67.1906C189.774 67.0017 189.699 66.8227 189.579 66.6753C189.46 66.5279 189.299 66.4184 189.119 66.3602C188.938 66.302 188.744 66.2975 188.56 66.3473C188.377 66.3971 188.212 66.499 188.085 66.6407C187.202 67.7799 189.323 71.3742 189.244 88.7961ZM242.394 122.913C257.341 97.6936 256.535 98.9507 256.418 98.4989C256.084 97.3597 255.141 97.9097 247.579 100.188C249.543 93.2154 251.998 85.7713 253.628 78.7201C253.662 78.4921 253.61 78.2597 253.481 78.0685C253.352 77.8774 253.156 77.7413 252.932 77.6872C252.708 77.633 252.472 77.6646 252.27 77.7758C252.068 77.887 251.915 78.0697 251.841 78.288C249.622 86.1445 247.422 93.8243 245.301 101.367C245.266 101.522 245.272 101.684 245.318 101.838C245.363 101.991 245.447 102.129 245.561 102.241C245.674 102.353 245.815 102.434 245.969 102.477C246.122 102.52 246.284 102.523 246.44 102.486C246.44 102.486 251.645 100.876 253.746 100.188L241.196 122.245C241.121 122.403 241.11 122.583 241.163 122.749C241.216 122.914 241.331 123.054 241.483 123.139C241.635 123.223 241.814 123.247 241.983 123.205C242.152 123.163 242.299 123.059 242.394 122.913ZM382.829 180.521C381.808 180.03 362.913 191.776 362.716 191.913C362.029 192.404 362.716 193.622 363.423 193.249C364.563 192.738 382.613 182.701 383.222 181.621C383.268 181.523 383.295 181.417 383.301 181.308C383.306 181.2 383.29 181.092 383.254 180.99C383.217 180.887 383.161 180.793 383.088 180.713C383.015 180.633 382.927 180.567 382.829 180.521ZM332.822 158.071C332.822 158.071 351.757 143.635 355.292 140.885C356.058 140.276 355.292 138.921 354.388 139.019C350.824 139.104 347.275 139.505 343.782 140.217C348.852 134.808 353.342 128.884 357.178 122.54C357.826 121.479 356.254 120.379 355.626 121.46C351.299 128.518 346.149 135.039 340.286 140.885C339.657 141.494 340.05 142.986 341.072 142.849C344.539 141.966 348.073 141.375 351.639 141.081C351.639 141.081 336.633 153.161 331.997 156.991C331.919 157.116 331.881 157.262 331.888 157.409C331.896 157.557 331.947 157.698 332.037 157.816C332.126 157.933 332.249 158.02 332.39 158.066C332.53 158.111 332.681 158.113 332.822 158.071ZM305.737 101.209C317.797 80.4289 319.898 77.4041 317.875 76.8935C317.011 76.6774 317.05 76.756 304.382 100.463C304.322 100.638 304.326 100.828 304.393 101C304.46 101.172 304.585 101.315 304.746 101.404C304.908 101.493 305.096 101.523 305.277 101.487C305.458 101.451 305.621 101.353 305.737 101.209Z" fill="black"/>
<path fill-rule="evenodd" clip-rule="evenodd" d="M305.796 176.082C333.137 184.685 353.387 204.13 361.4 229.408C367.293 247.989 364.189 264.095 344.509 264.547L342.702 264.606C332.83 264.259 314.666 256.581 301.596 251.057C298.387 249.701 295.485 248.474 293.088 247.518C292.027 248.323 291.006 249.03 290.063 249.659C287.745 265.254 279.005 275.29 264.765 278.669L262.919 279.042C242.394 282.931 203.582 269.437 187.751 262.19C185.485 263.563 183.219 265.008 180.94 266.461C169.694 273.632 158.129 281.006 144.541 281.006L142.871 281.026C137.737 280.886 132.738 279.35 128.412 276.581C124.085 273.812 120.596 269.917 118.319 265.313C115.691 263.635 113.15 261.78 110.598 259.916L110.188 259.617C93.8856 267.984 76.2477 275.939 57.7456 277.647L55.8993 277.785C48.9855 278.237 39.3613 277.667 33.9206 268.612C28.971 260.481 30.012 249.717 31.7404 242.136C38.8899 210.71 66.4859 192.777 88.4646 183.212C88.2179 181.554 88.229 180.814 88.2339 180.487C88.2362 180.331 88.2371 180.27 88.208 180.248C88.189 180.233 88.1571 180.236 88.1042 180.24C88.0701 180.243 88.0273 180.246 87.9735 180.246C79.2135 180.246 75.5013 170.052 74.0282 163.669C70.807 164.337 70.0214 161.803 69.3339 158.739C69.1945 158.125 69.0621 157.575 68.9428 157.079C67.9703 153.036 67.874 152.635 71.9855 151.393C71.7695 149.488 71.5534 147.033 71.4159 144.577C70.3553 123.011 107.733 115.548 113.92 135.189C115.309 140.739 114.675 146.602 112.132 151.727C112.141 153.46 111.746 154.793 111.355 156.115C110.824 157.911 110.299 159.686 110.797 162.412C111.96 167.837 113.746 173.11 116.12 178.125C129.22 177.045 142.851 182.917 148.979 187.238C160.12 180.813 172.341 176.48 185.041 174.452C185.041 174.059 185.07 173.661 185.1 173.264C185.129 172.866 185.159 172.468 185.159 172.075C180.425 170.504 177.99 164.022 177.302 158.13C173.335 157.757 168.149 142.162 174.808 143.654C173.824 136.129 173.508 128.53 173.865 120.949C174.454 116.49 177.342 113.78 181.014 116.49C182.409 112.641 186.435 112.621 187.909 115.94C189.028 111.619 194.037 110.637 196.001 114.899C196.3 114.055 196.843 113.318 197.562 112.784C198.28 112.249 199.142 111.939 200.036 111.895C200.931 111.851 201.819 112.074 202.587 112.535C203.354 112.997 203.968 113.676 204.348 114.487C204.71 113.747 205.296 113.14 206.022 112.751C206.748 112.362 207.578 112.212 208.394 112.32C209.211 112.429 209.972 112.791 210.572 113.356C211.171 113.921 211.577 114.66 211.734 115.469C213.324 113.191 216.153 112.817 217.626 115.823C218.013 115.302 218.538 114.9 219.143 114.664C219.747 114.428 220.406 114.366 221.043 114.487C221.947 114.683 223.911 115.705 224.166 120.281C224.451 127.66 223.997 135.05 222.811 142.338C227.427 142.574 226.739 152.748 220.847 157.855C220.631 160.546 219.57 168.795 214.562 171.329C214.68 172.201 214.739 173.081 214.739 173.961C226.465 175.212 237.916 178.328 248.659 183.192C255.186 173.396 254.986 166.742 254.743 158.672C254.624 154.721 254.495 150.43 255.141 145.265C256.692 133.166 266.926 124.838 276 121.067C287.628 116.235 295.602 119.26 300.237 122.638C305.285 126.311 308.153 131.928 307.956 135.071C308.86 136.878 309.704 138.705 310.431 140.669L315.558 137.644C318.366 135.994 314.556 148.015 313.122 150.352C314.772 160.114 313.102 171.329 305.639 174.589C305.725 175.083 305.777 175.582 305.796 176.082ZM54.9909 281.971C54.9913 281.967 54.9986 281.947 55.012 281.925C54.9972 281.965 54.9905 281.976 54.9909 281.971ZM57.0571 285.152C57.0779 284.976 57.0908 284.86 57.0926 284.839C57.0946 284.816 57.0838 284.904 57.0564 285.148L57.0366 285.324L57.0571 285.152ZM221.551 145.008C221.454 145.157 221.352 145.312 221.24 145.461C221.338 148.565 221.279 151.727 221.083 154.85C223.381 151.805 225.581 144.97 222.831 144.165C222.227 143.979 221.916 144.453 221.551 145.008ZM175.004 145.616C174.792 145.522 174.653 145.461 174.356 145.461V145.501C172.097 145.501 174.199 153.023 177.106 155.714L176.32 146.011C175.573 145.866 175.243 145.721 175.004 145.616ZM311.351 142.853C311.097 142.989 310.907 143.221 310.824 143.497V143.458C310.215 145.265 308.369 150.863 310.097 150.804C310.335 150.77 310.562 150.681 310.759 150.545C310.957 150.409 311.12 150.228 311.236 150.018C311.514 148.98 311.822 147.911 312.177 146.676C312.4 145.903 312.641 145.064 312.906 144.126C312.989 143.85 312.96 143.552 312.823 143.298C312.687 143.043 312.455 142.854 312.179 142.77C311.903 142.687 311.605 142.717 311.351 142.853ZM280.196 151.49C279.7 151.229 278.659 150.681 277.768 151.354V151.236C277.353 151.715 277.086 152.304 276.999 152.931C276.912 153.558 277.008 154.198 277.277 154.771C277.673 156.254 278.708 157.228 279.767 158.224C280.545 158.955 281.335 159.699 281.892 160.664C283.494 165.182 284.11 169.99 283.699 174.766C287.667 180.482 297.605 192.797 302.653 193.897C303.956 187.548 304.484 181.065 304.224 174.589C303.767 173.756 304.546 173.245 305.714 172.479C307.105 171.567 309.049 170.292 310.117 167.676C311.903 162.64 312.39 157.236 311.531 151.963C310.67 152.721 309.581 153.172 308.436 153.243C307.291 153.314 306.155 153.002 305.207 152.355C305.992 153.514 306.699 154.83 306.326 155.282C303.832 158.228 303.184 155.832 303.93 155.282C304.186 155.082 304.429 154.865 304.657 154.634C304.178 153.784 303.769 153.108 303.441 152.564C302.501 151.009 302.214 150.534 302.81 150.156C302.908 150.107 303.016 150.082 303.125 150.082C303.234 150.082 303.341 150.107 303.439 150.156C303.277 149.811 303.159 149.448 303.085 149.075C302.645 148.989 302.19 149.023 301.767 149.175C301.345 149.328 300.973 149.592 300.689 149.94C302.712 155.694 297.409 160.035 289.297 153.73C289.195 153.651 289.081 153.562 288.958 153.466C286.162 151.29 278.262 145.141 281.441 145.01C284.014 144.911 296.78 144.597 299.864 148.309C300.286 147.9 300.794 147.59 301.352 147.403C301.909 147.216 302.502 147.157 303.085 147.229C303.72 144.497 306.409 142.972 308.826 141.6L308.978 141.513C308.33 139.667 307.603 137.801 306.758 135.837C298.475 136.037 290.336 138.048 282.914 141.729C283.011 142.02 283.108 142.298 283.202 142.567C283.337 142.954 283.466 143.324 283.581 143.694C283.593 143.737 283.595 143.782 283.587 143.826C283.579 143.87 283.561 143.911 283.535 143.947C283.508 143.983 283.474 144.012 283.434 144.033C283.395 144.054 283.351 144.065 283.307 144.067C283.12 144.076 282.919 144.079 282.71 144.083C281.51 144.104 280.055 144.13 279.653 145.167C279.025 146.777 282.01 149.134 283.464 150.273L283.856 150.588C284.387 151.079 282.305 152.788 280.458 151.609C280.414 151.605 280.323 151.557 280.196 151.49ZM306.483 149.625C307.08 149.625 307.271 148.981 307.446 148.39C307.479 148.281 307.51 148.174 307.544 148.074V147.956L307.575 147.864C307.906 146.872 308.341 145.571 307.446 145.324C307.302 145.253 307.144 145.216 306.984 145.216C306.824 145.216 306.666 145.253 306.523 145.324C305.776 145.756 305.58 147.386 305.501 148.093C305.423 148.8 305.776 149.625 306.483 149.625ZM296.831 152.933C296.875 152.809 296.916 152.692 296.957 152.591V152.473C296.965 152.453 296.977 152.424 296.993 152.386C297.205 151.874 298.049 149.839 297.664 148.997C297.618 148.873 297.541 148.763 297.441 148.677C297.341 148.591 297.221 148.531 297.092 148.504C296.962 148.476 296.828 148.482 296.702 148.52C296.575 148.558 296.461 148.628 296.368 148.722C295.307 149.566 294.011 153.946 295.189 154.378C295.3 154.432 295.421 154.46 295.543 154.46C295.666 154.46 295.786 154.432 295.897 154.378C296.405 154.14 296.644 153.464 296.831 152.933ZM292.559 150.888L292.582 150.839C292.606 150.789 292.63 150.737 292.656 150.686C293.049 149.979 293.5 149.095 293.225 148.447C293.176 148.319 293.101 148.202 293.005 148.104C292.909 148.007 292.794 147.929 292.667 147.878C292.54 147.826 292.404 147.801 292.267 147.805C292.13 147.808 291.995 147.839 291.87 147.897C291.238 148.213 290.962 149.229 290.765 149.951C290.718 150.126 290.675 150.284 290.633 150.411C290.584 150.561 290.573 150.72 290.6 150.875C290.628 151.03 290.693 151.176 290.79 151.3C290.887 151.424 291.013 151.523 291.156 151.587C291.3 151.651 291.458 151.679 291.615 151.668C292.193 151.668 292.359 151.314 292.559 150.888ZM304.244 194.761C303.105 199.436 288.413 185.49 282.835 175.866C272.469 176.618 262.465 179.998 253.766 185.687C265.854 192.003 275.921 201.593 282.815 213.361C309.39 205.033 328.776 215.149 338.4 222.396C335.923 215.109 332.024 208.387 326.93 202.618C326.184 201.852 327.46 200.869 328.148 201.635C331.546 205.387 340.404 217.879 340.679 224.341C347.057 224.175 353.384 225.521 359.142 228.269C351.187 204.758 332.92 187.337 306.012 177.83C306.123 183.525 305.529 189.212 304.244 194.761ZM216.605 130.514C204.627 127.974 192.217 128.331 180.406 131.555C180.557 134.618 180.426 137.689 180.013 140.728H180.386C182.193 133.735 192.033 131.457 195.431 138.528C197.227 137.919 199.174 137.919 200.97 138.528C204.486 130.671 214.935 132.989 216.565 140.492H216.919C216.508 137.183 216.403 133.843 216.605 130.514ZM212.716 139.078C210.653 139.294 207.471 146.718 207.118 147.72C206.666 149.095 208.591 149.566 209.082 148.349C210.441 145.616 212.003 142.99 213.757 140.492C213.81 140.329 213.823 140.155 213.796 139.986C213.768 139.816 213.701 139.656 213.599 139.518C213.497 139.379 213.364 139.267 213.211 139.191C213.057 139.114 212.887 139.076 212.716 139.078ZM202.6 145.226C202.973 145.913 204.034 145.56 204.27 144.97C205.281 142.67 206.546 140.489 208.041 138.469C208.15 138.327 208.223 138.16 208.254 137.983C208.284 137.806 208.27 137.624 208.214 137.454C208.158 137.283 208.061 137.129 207.931 137.005C207.802 136.881 207.644 136.79 207.471 136.741C206.941 136.662 206.332 137.133 205.684 138.096C203.131 141.926 202.227 144.538 202.6 145.226ZM189.873 142.692C189.708 143.025 189.541 143.36 189.375 143.696C188.628 145.199 187.872 146.722 187.182 148.231C186.593 149.409 188.4 150.156 189.146 149.174C189.916 147.762 190.646 146.312 191.359 144.897L191.578 144.461C191.665 144.29 191.751 144.119 191.837 143.949C191.96 143.763 192.026 143.544 192.026 143.32C192.026 143.097 191.96 142.878 191.837 142.692C191.74 142.516 191.598 142.369 191.426 142.266C191.253 142.164 191.056 142.11 190.855 142.11C190.654 142.11 190.457 142.164 190.284 142.266C190.111 142.369 189.969 142.516 189.873 142.692ZM184.687 145.893L184.805 145.756C185.533 144.216 186.371 142.739 187.208 141.264C187.909 140.03 188.609 138.796 189.244 137.526C189.833 136.328 188.125 135.444 187.28 136.466C185.541 139.18 184.093 142.07 182.959 145.088C182.547 146.208 184.079 146.777 184.687 145.893ZM179.709 142.902C179.37 144.098 178.993 145.427 177.793 145.933C177.975 147.561 178.104 149.236 178.234 150.914C178.86 159.028 179.49 167.196 186.082 170.386C186.868 170.779 187.005 170.956 187.005 172.095C186.989 181.519 188.874 183.989 194.975 191.985C196.211 193.605 197.621 195.452 199.222 197.629C204.152 193.033 213.678 182.269 213.108 176.829C212.863 174.747 212.863 172.644 213.108 170.563C213.207 169.934 213.992 169.306 214.68 168.756C219.343 165.074 219.468 155.784 219.56 149.021C219.573 148.065 219.585 147.158 219.61 146.326C217.803 146.463 217.449 144.106 217.213 142.397H216.84C216.929 145.287 215.902 148.101 213.973 150.254C213.174 151.075 212.209 151.715 211.141 152.131C210.074 152.546 208.929 152.728 207.786 152.663C206.642 152.597 205.526 152.287 204.513 151.753C203.499 151.219 202.613 150.473 201.913 149.566C200.994 148.216 200.379 146.683 200.111 145.072C199.843 143.461 199.929 141.811 200.361 140.237C198.99 139.745 197.49 139.745 196.119 140.237C196.514 141.848 196.475 143.271 196.464 143.691C196.462 143.772 196.46 143.816 196.463 143.817C196.467 143.817 196.477 143.758 196.498 143.631C196.546 143.338 196.653 142.684 196.885 141.553C197.081 140.649 198.476 140.787 198.338 141.749C197.845 145.216 197.654 148.718 197.769 152.218H199.222C200.4 152.238 200.125 154.005 199.104 154.005H197.14C195.885 153.92 195.919 152.81 195.951 151.749C195.956 151.582 195.962 151.416 195.962 151.256C195.929 149.353 196.014 147.451 196.217 145.56C196.013 147.03 195.404 148.415 194.459 149.56C193.513 150.705 192.268 151.565 190.863 152.043C189.457 152.522 187.947 152.601 186.499 152.271C185.051 151.941 183.724 151.216 182.664 150.175C181.771 149.141 181.091 147.941 180.662 146.643C180.234 145.345 180.067 143.976 180.17 142.613L179.757 142.731L179.709 142.902ZM198.436 199.141C190.089 190.361 185.355 182.21 185.139 176.18C152.22 182.682 116.65 203.305 114.843 241.782C128.02 235.393 141.849 230.448 156.09 227.032C157.109 220.551 159.819 214.454 163.946 209.355C164.061 209.234 164.217 209.159 164.383 209.145C164.549 209.13 164.715 209.176 164.849 209.275C164.984 209.373 165.078 209.517 165.114 209.68C165.151 209.843 165.126 210.014 165.046 210.16C161.387 215.012 158.943 220.669 157.916 226.659C170.746 223.572 183.84 221.711 197.022 221.1C218.922 220.118 234.635 224.95 244.967 235.831C243.356 226.407 240.722 217.186 237.11 208.333C237.04 208.159 237.042 207.963 237.115 207.79C237.189 207.617 237.328 207.48 237.503 207.41C237.677 207.34 237.873 207.342 238.046 207.415C238.219 207.489 238.356 207.628 238.426 207.803C242.587 216.772 245.476 226.279 247.009 236.047C250.584 235.36 271.679 231.51 288.374 234.79C283.778 203.6 254.964 180.462 214.758 175.729V179.048C215.053 183.016 200.125 201.341 198.436 199.141ZM100.289 145.383C100.046 143.534 99.9346 141.67 99.9548 139.805C90.7015 138.639 81.3081 140.152 72.889 144.165C72.9044 145.624 73.2078 147.862 73.4427 149.596C73.5083 150.08 73.5686 150.525 73.6157 150.902C81.9829 148.309 93.2178 145.56 100.289 145.383ZM90.5333 156.775C90.9783 155.644 91.7504 153.681 93.7088 150.352C93.8186 150.194 93.8786 150.007 93.8811 149.815C93.8836 149.623 93.8285 149.434 93.7228 149.273C93.6171 149.113 93.4658 148.987 93.2882 148.914C93.1107 148.84 92.9151 148.821 92.7267 148.859C91.8625 149.016 90.1537 150.273 88.3664 157.03C88.3252 157.172 88.3187 157.322 88.3476 157.467C88.3764 157.612 88.4397 157.748 88.5322 157.864C88.6246 157.979 88.7434 158.071 88.8786 158.131C89.0138 158.191 89.1615 158.218 89.3092 158.209C89.9691 158.209 90.0857 157.912 90.5333 156.775ZM85.6755 154.437C86.4105 154.614 86.7211 153.867 87.0843 152.993C87.2453 152.605 87.4165 152.193 87.6396 151.825C88.0118 151.376 88.2501 150.832 88.3271 150.254C88.3142 150.036 88.2333 149.828 88.0959 149.659C87.9584 149.49 87.7714 149.368 87.5611 149.311C87.1879 149.213 86.6379 149.232 86.0094 150.509C85.3809 151.786 84.6149 154.182 85.6755 154.437ZM72.8894 156.261C72.9351 156.055 72.9753 155.874 73.0265 155.753V155.694C73.7532 154.378 73.8514 153.554 73.38 153.239C73.1686 153.116 72.9235 153.063 72.6801 153.088C72.4366 153.113 72.2072 153.214 72.0248 153.377C71.1401 154.433 70.7031 155.793 70.807 157.168C70.864 157.366 70.9859 157.54 71.1533 157.661C71.3206 157.782 71.5238 157.843 71.7302 157.835C72.5393 157.835 72.7426 156.921 72.8894 156.261ZM77.1708 152.827C76.5619 152.964 75.5406 153.907 73.7532 160.33V160.271C73.6725 160.521 73.6944 160.793 73.8141 161.027C73.9338 161.261 74.1415 161.437 74.3916 161.518C74.6416 161.599 74.9135 161.577 75.1474 161.457C75.3813 161.338 75.5581 161.13 75.6388 160.88L78.2315 154.182C78.2594 153.774 78.1253 153.372 77.8583 153.062C77.7771 152.963 77.6697 152.888 77.5482 152.846C77.4267 152.805 77.296 152.798 77.1708 152.827ZM80.2938 156.775C80.6652 161.939 79.7148 162.198 76.7684 163.002C76.4428 163.091 76.0927 163.186 75.7174 163.296L75.6388 163.237C78.0547 173.764 82.3365 178.694 88.8574 178.655C89.5969 178.635 90.0034 181.643 90.5543 185.72C91.057 189.44 91.6799 194.05 92.7857 198.061C98.2852 195.075 110.64 187.533 114.941 179.362C112.188 173.722 110.206 167.736 109.049 161.567C108.774 159.277 109.345 157.299 109.861 155.508C110.306 153.965 110.711 152.561 110.502 151.216C110.266 149.861 109.167 148.093 107.89 148.899C107.411 149.208 106.877 149.936 106.31 150.707C104.504 153.165 102.371 156.069 100.681 147.308L95.7319 147.7C95.7982 148.898 95.885 149.971 95.963 150.936C96.3926 156.249 96.5552 158.26 91.5679 159.623C91.1904 159.722 90.8002 159.846 90.4028 159.972C88.5261 160.566 86.4877 161.211 84.8506 159.623C83.8253 158.628 83.3194 156.489 82.8855 154.655C82.4799 152.94 82.1372 151.491 81.4919 151.491C79.8432 151.432 80.1559 155.139 80.2935 156.771L80.2938 156.775ZM88.6708 185.345L88.6414 185.098L88.5628 185.039C58.8062 198.296 39.9309 217.486 33.9599 240.604C40.0119 236.663 47.0483 234.499 54.269 234.358C56.0368 230.96 61.9488 226.639 64.7182 224.95C64.895 222.534 72.0641 210.69 72.5748 209.924C72.6225 209.848 72.6852 209.782 72.759 209.731C72.8328 209.679 72.9163 209.643 73.0043 209.625C73.0924 209.607 73.1832 209.606 73.2714 209.624C73.3596 209.642 73.4433 209.677 73.5175 209.728C74.1947 210.173 73.8773 210.671 72.822 212.326C71.6428 214.176 69.5425 217.471 66.8788 223.752C83.3591 215.051 102.968 217.475 118.838 219.437L118.948 219.45C125.156 206.55 135.019 195.758 147.31 188.417C134.134 180.477 124.67 180.121 119.589 179.93C118.247 179.88 117.211 179.841 116.493 179.676C114.175 186.551 97.9121 197.236 92.5696 199.75C90.5029 200.783 89.0701 188.71 88.6708 185.345ZM33.3707 242.666C31.819 249.875 30.2084 263.015 37.7114 270.871C51.3806 285.049 88.926 267.766 104.226 260.724C106.074 259.873 107.597 259.172 108.715 258.694C77.8779 235.458 52.5406 230.076 33.3707 242.666ZM56.3061 234.26C71.8994 217.056 94.4233 218.157 118.143 221.08C112.054 235.124 111.523 249.953 116.611 262.052C98.9478 248.825 78.0887 234.283 56.3061 234.26ZM114.941 243.648C114.666 262.504 125.056 279.494 144.403 279.494V279.435C156.649 279.435 167.872 272.574 181.731 264.103C197.301 254.585 216.198 243.033 243.611 236.892C233.005 225.853 216.821 221.473 192.78 223.143C166.46 224.969 142.439 231.294 114.941 243.648ZM189.5 261.267C212.126 270.321 243.965 281.674 263.194 277.333C282.01 273.071 291.045 258.654 288.629 236.715C258.008 231.942 225.561 239.975 189.5 261.267ZM290.438 247.578C297.158 241.906 317.622 226.068 337.929 224.557C322.452 212.576 304.637 209.394 283.542 214.854C289.052 224.831 291.453 236.227 290.438 247.578ZM301.709 249.185C314.576 254.661 333.814 262.848 343.842 262.857C362.461 262.739 365.093 248.322 359.829 230.567C353.708 227.276 346.79 225.759 339.854 226.187C322.098 226.894 307.347 236.892 294.895 246.32C296.83 247.109 299.143 248.093 301.709 249.185Z" fill="black"/>
</svg>
